# Blender 3.1.0
# www.blender.org
mtllib Hammer.mtl
o polygon0.001
v -0.035645 -7.521484 0.873533
v -0.035645 7.521484 0.873537
v -1.040527 -7.521484 -0.032717
v -1.040527 7.521484 -0.032713
v -0.035645 -7.521484 -0.920412
v -0.035645 7.521484 -0.920408
v 1.040527 -7.521484 -0.036867
v 1.040527 7.521484 -0.036863
v -0.035645 -7.521484 0.873533
v -0.035645 7.521484 0.873537
v 1.489746 5.121828 -4.068113
v -1.489746 5.121828 -4.068113
v 2.042725 6.105958 -1.666746
v -2.042725 6.105958 -1.666746
v 2.042725 6.483397 2.740481
v -2.042725 6.483397 2.740481
v 2.127686 7.094971 4.031740
v 2.138916 7.131590 3.092531
v 0.000000 7.570557 4.031741
v 0.000000 7.613037 3.092531
v -2.127686 7.094971 4.031740
v -2.138916 7.131590 3.092531
v 2.138916 1.002441 3.092529
v 2.127686 1.039305 4.031738
v 0.000000 0.520995 3.092529
v 0.000000 0.563475 4.031738
v -2.138916 1.002441 3.092529
v -2.127686 1.039305 4.031738
v 2.127686 1.039305 4.031738
v 2.138916 1.002441 3.092529
v 3.564209 4.067139 4.031738
v 3.583252 4.067139 3.092531
v 2.127686 7.094971 4.031740
v 2.138916 7.131590 3.092531
v -2.138916 1.002441 3.092529
v -2.127686 1.039305 4.031738
v -3.583252 4.067139 3.092531
v -3.564209 4.067139 4.031738
v -2.138916 7.131590 3.092531
v -2.127686 7.094971 4.031740
v 0.000000 7.570557 4.031741
v -2.127686 7.094971 4.031740
v 0.000000 4.067139 4.031738
v -2.138916 7.131590 3.092531
v -2.127686 7.094971 4.031740
v -2.042725 6.483397 2.740481
v -2.138916 7.131590 3.092531
v 3.564209 4.067139 4.031738
v 2.127686 7.094971 4.031740
v 0.000000 4.067139 4.031738
v 2.138916 7.131590 3.092531
v 2.127686 7.094971 4.031740
v 2.042725 6.483397 2.740481
v 2.138916 7.131590 3.092531
v 0.000000 0.538576 -5.397705
v 1.489746 3.491457 -3.124022
v 1.489746 1.650879 -0.244873
v 2.042725 6.105958 -1.666746
v 2.042725 6.483397 2.740481
v 2.138916 7.131590 3.092531
v 2.042725 6.483397 2.740481
v 0.000000 7.613037 3.092531
v -2.042725 6.483397 2.740481
v -2.138916 7.131590 3.092531
v -2.138916 7.131590 3.092531
v -2.042725 6.483397 2.740481
v -3.583252 4.067139 3.092531
v -2.042725 1.650879 2.740479
v -2.138916 1.002441 3.092529
v 2.138916 1.002441 3.092529
v 2.042725 1.650879 2.740479
v 3.583252 4.067139 3.092531
v 2.042725 6.483397 2.740481
v 2.138916 7.131590 3.092531
v -2.042725 1.650879 2.740479
v -2.042725 6.483397 2.740481
v -1.489746 1.650879 -0.244873
v -2.042725 6.105958 -1.666746
v -1.489746 3.491457 -3.124022
v 2.042725 1.650879 2.740479
v 2.138916 1.002441 3.092529
v 0.000000 0.563475 4.031738
v 0.000000 4.067139 4.031738
v 2.138916 1.002441 3.092529
v 2.042725 1.650879 2.740479
v 2.127686 1.039305 4.031738
v 0.000000 0.563475 4.031738
v -2.127686 1.039305 4.031738
v 0.000000 0.563475 4.031738
v -2.138916 1.002441 3.092529
v -2.127686 1.039305 4.031738
v -2.138916 1.002441 3.092529
v -2.127686 1.039305 4.031738
v -2.042725 1.650879 2.740479
v -2.138916 1.002441 3.092529
v 0.000000 0.538576 -5.397705
v -1.489746 3.491457 -3.124022
v 1.489746 3.491457 -3.124022
v 0.000000 2.747561 -5.851807
v 2.042725 6.105958 -1.666746
v 1.489746 3.491457 -3.124022
v 1.489746 5.121828 -4.068113
v 0.000000 2.747561 -5.851807
v -2.042725 6.105958 -1.666746
v -1.489746 5.121828 -4.068113
v -1.489746 3.491457 -3.124022
v 0.000000 2.747561 -5.851807
v 2.138916 1.002441 3.092529
v 0.000000 0.520995 3.092529
v 2.042725 1.650879 2.740479
v -2.042725 1.650879 2.740479
v -1.040527 7.521484 -0.032713
v -0.035645 7.521484 0.873537
v 1.040527 7.521484 -0.036863
v -0.035645 7.521484 -0.920408
v -0.035645 -7.521484 -0.920412
v 1.040527 -7.521484 -0.036867
v -0.035645 -7.521484 0.873533
v -1.040527 -7.521484 -0.032717
v -1.489746 1.650879 -0.244873
v 1.489746 1.650879 -0.244873
v 2.042725 1.650879 2.740479
v -2.042725 1.650879 2.740479
v -1.489746 1.650879 -0.244873
v 0.000000 0.538576 -5.397705
v 1.489746 1.650879 -0.244873
v 0.000000 0.538576 -5.397705
v -1.489746 1.650879 -0.244873
v -1.489746 3.491457 -3.124022
v 2.127686 1.039305 4.031738
v 0.000000 4.067139 4.031738
v 2.138916 1.002441 3.092529
v 1.489746 1.650879 -0.244873
v 2.042725 6.483397 2.740481
v 2.042725 1.650879 2.740479
v 0.000000 4.067139 4.031738
v -2.127686 7.094971 4.031740
v -3.564209 4.067139 4.031738
v 0.000000 4.067139 4.031738
v -2.127686 1.039305 4.031738
v 0.000000 0.563475 4.031738
v -3.564209 4.067139 4.031738
v -2.127686 1.039305 4.031738
v 0.000000 4.067139 4.031738
v 0.000000 4.067139 4.031738
v 2.127686 7.094971 4.031740
v 0.000000 7.570557 4.031741
v 3.564209 4.067139 4.031738
v 0.000000 4.067139 4.031738
v 2.127686 1.039305 4.031738
v -2.042725 1.650879 2.740479
v 0.000000 0.520995 3.092529
v -2.138916 1.002441 3.092529
v -1.489746 5.121828 -4.068113
v 1.489746 5.121828 -4.068113
v 0.000000 2.747561 -5.851807
vn -0.6697 -0.0000 0.7426
vn -1.0000 -0.0000 -0.0051
vn -0.0181 -0.0000 -0.9998
vn 1.0000 -0.0000 -0.0074
vn 0.6459 -0.0000 0.7635
vn -0.0000 0.9253 -0.3792
vn -0.0000 0.9745 -0.2243
vn -0.0000 0.9964 -0.0853
vn 0.2180 0.9751 0.0406
vn 0.2183 0.9750 0.0415
vn 0.0006 0.9990 0.0447
vn 0.0005 0.9990 0.0447
vn -0.2190 0.9748 0.0415
vn -0.2194 0.9748 0.0406
vn 0.2194 -0.9748 0.0409
vn 0.2191 -0.9748 0.0417
vn -0.0005 -0.9990 0.0448
vn -0.2184 -0.9750 0.0417
vn -0.2181 -0.9751 0.0409
vn 0.9031 -0.4285 0.0276
vn 0.9034 -0.4281 0.0260
vn 0.9998 0.0011 0.0212
vn 0.9998 0.0011 0.0211
vn 0.9041 0.4266 0.0259
vn 0.9042 0.4262 0.0274
vn -0.9042 -0.4261 0.0275
vn -0.9041 -0.4266 0.0260
vn -0.9998 -0.0010 0.0212
vn -0.9998 -0.0011 0.0211
vn -0.9034 0.4281 0.0259
vn -0.9031 0.4285 0.0275
vn -0.0000 -0.0000 1.0000
vn -0.6642 -0.4667 0.5840
vn -0.9887 -0.1500 0.0060
vn 0.8181 0.5749 0.0126
vn -0.0000 -0.9990 0.0437
vn 0.9887 0.1500 -0.0060
vn -0.6802 0.4780 0.5557
vn -0.9887 0.1500 -0.0060
vn 0.8181 -0.5749 -0.0126
vn -0.0000 0.9990 -0.0437
vn 0.9887 -0.1500 0.0060
vn 0.9281 -0.3138 -0.2006
vn 0.9602 -0.2352 -0.1504
vn 0.9756 -0.1981 -0.0951
vn 0.9907 -0.1327 -0.0304
vn 0.9927 -0.1199 0.0103
vn 0.1041 0.4627 -0.8804
vn 0.0725 0.4139 -0.9074
vn -0.0000 0.3376 -0.9413
vn -0.0725 0.4139 -0.9074
vn -0.1041 0.4627 -0.8804
vn -0.6294 0.2967 -0.7182
vn -0.5601 0.2416 -0.7924
vn -0.2904 -0.0000 -0.9569
vn -0.5600 -0.2416 -0.7925
vn -0.6294 -0.2966 -0.7183
vn 0.6294 -0.2966 -0.7183
vn 0.5600 -0.2416 -0.7925
vn 0.2904 -0.0000 -0.9569
vn 0.5601 0.2416 -0.7924
vn 0.6294 0.2967 -0.7182
vn -0.9833 -0.0000 -0.1821
vn -0.9952 -0.0754 -0.0622
vn -0.9920 -0.0824 -0.0955
vn -0.9907 -0.1327 -0.0304
vn -0.9833 -0.1533 -0.0980
vn -0.2641 -0.4902 -0.8306
vn -0.0320 -0.8756 -0.4820
vn 0.4194 -0.1176 0.9002
vn 0.4021 -0.0000 0.9156
vn 0.9887 0.1499 0.0059
vn 0.3875 0.8427 0.3736
vn 0.0998 0.9018 0.4205
vn -0.1970 0.8810 0.4302
vn 0.2181 0.9751 -0.0409
vn 0.7682 -0.0000 0.6402
vn 0.7526 -0.0000 0.6585
vn -0.9887 0.1499 0.0059
vn 0.9887 -0.1499 -0.0059
vn -0.0000 0.6101 -0.7923
vn -0.0000 -0.4390 -0.8985
vn -0.0000 -0.9648 0.2631
vn 0.9776 -0.1054 -0.1820
vn 0.9310 -0.1829 -0.3158
vn 0.9417 -0.1686 -0.2912
vn 0.8781 -0.2398 -0.4141
vn -0.9776 -0.1054 -0.1820
vn -0.9417 -0.1686 -0.2912
vn -0.9310 -0.1829 -0.3158
vn -0.8781 -0.2398 -0.4141
vn 0.1041 -0.4626 -0.8804
vn 0.0138 -0.3202 -0.9473
vn 0.0725 -0.4138 -0.9075
vn -0.0000 -0.2975 -0.9547
vn -0.0000 1.0000 -0.0000
vn -0.0000 -1.0000 -0.0000
vn -0.0000 -0.9775 0.2110
vn -0.9281 -0.3138 -0.2006
vn -0.8181 -0.5749 0.0128
vn 0.9833 -0.0000 -0.1821
vn -0.1041 -0.4626 -0.8804
vn -0.0000 0.6006 -0.7995
vt 0.500000 -0.500000
vt 0.500000 -0.060500
vt 0.303700 -0.500000
vt 0.303700 -0.060500
vt 0.496100 -0.500000
vt 0.496100 -0.060500
vt 0.302700 -0.500000
vt 0.302700 -0.060500
vt 0.500000 -0.500000
vt 0.500000 -0.060500
vt -0.053700 -0.419900
vt -0.054700 -0.556600
vt 0.085900 -0.394500
vt 0.085000 -0.582000
vt 0.266600 -0.394500
vt 0.265600 -0.585900
vt -0.014600 -0.500000
vt 0.060500 -0.500000
vt -0.013700 0.003900
vt 0.061500 0.003900
vt -0.017600 -0.259800
vt 0.057600 -0.267600
vt 0.053700 -0.591800
vt -0.071300 -0.585900
vt 0.051800 -0.250000
vt -0.074200 -0.252000
vt 0.049800 0.085900
vt -0.076200 0.087900
vt 0.050800 -0.929700
vt -0.043000 -0.935500
vt 0.050800 -0.527300
vt -0.043000 -0.527300
vt 0.050800 -0.064500
vt -0.043000 -0.060500
vt -0.043000 -0.935500
vt 0.050800 -0.929700
vt -0.043000 -0.527300
vt 0.050800 -0.527300
vt -0.043000 -0.060500
vt 0.050800 -0.064500
vt 0.033200 -0.349600
vt -0.019500 -0.029300
vt 0.062500 -0.230500
vt -0.019500 -0.029300
vt -0.019500 -0.029300
vt -0.019500 -0.029300
vt -0.019500 -0.029300
vt 0.055700 -0.500000
vt 0.058600 -0.005900
vt -0.066400 -0.289100
vt 0.058600 0.000000
vt 0.058600 -0.005900
vt -0.020500 -0.105500
vt 0.058600 0.000000
vt -0.089800 -0.482400
vt 0.013700 -0.298800
vt 0.145500 -0.478500
vt 0.080100 -0.044900
vt 0.281200 -0.007800
vt -0.043000 -0.060500
vt -0.078100 -0.146500
vt -0.043000 0.003900
vt -0.078100 -0.146500
vt -0.043000 -0.060500
vt -0.043000 -0.060500
vt -0.078100 -0.146500
vt -0.043000 -0.527300
vt -0.078100 -0.849600
vt -0.043000 -0.935500
vt -0.043000 -0.935500
vt -0.078100 -0.849600
vt -0.043000 -0.527300
vt -0.078100 -0.146500
vt -0.043000 -0.060500
vt 0.281200 -0.478500
vt 0.281200 -0.007800
vt 0.145500 -0.478500
vt 0.080100 -0.044900
vt 0.013700 -0.298800
vt -0.037100 -0.337900
vt -0.037100 -0.337900
vt -0.066400 -0.002000
vt 0.054700 -0.191400
vt -0.037100 -0.337900
vt -0.037100 -0.337900
vt -0.037100 -0.337900
vt -0.066400 -0.002000
vt -0.019500 -0.029300
vt 0.033200 -0.345700
vt -0.019500 -0.029300
vt -0.019500 -0.029300
vt -0.019500 -0.029300
vt -0.019500 -0.029300
vt -0.019500 -0.029300
vt -0.019500 -0.029300
vt -0.003900 -0.500000
vt 0.051800 -0.250000
vt -0.059600 -0.250000
vt -0.003900 0.000000
vt 0.058600 0.000000
vt 0.001000 -0.334000
vt -0.037100 -0.043000
vt -0.107400 -0.246100
vt 0.058600 -0.041000
vt -0.037100 -0.050800
vt 0.001000 -0.257800
vt -0.107400 -0.246100
vt -0.043000 -0.935500
vt -0.043000 -1.000000
vt -0.078100 -0.849600
vt -0.078100 -0.849600
vt 0.498000 -0.119100
vt 0.618200 -0.003900
vt 0.498000 0.119100
vt 0.380900 -0.003900
vt 0.380900 -0.003900
vt 0.498000 0.119100
vt 0.618200 -0.003900
vt 0.498000 -0.119100
vt 0.145500 -0.556600
vt 0.157200 -0.455100
vt 0.257800 -0.322300
vt 0.254900 -0.664100
vt 0.145500 -0.556600
vt -0.058600 -0.494100
vt 0.157200 -0.455100
vt -0.089800 -0.482400
vt 0.145500 -0.478500
vt 0.013700 -0.298800
vt -0.037100 -0.337900
vt 0.054700 -0.191400
vt -0.037100 -0.337900
vt 0.145500 -0.478500
vt 0.281200 -0.007800
vt 0.281200 -0.478500
vt -0.015600 -0.322300
vt 0.030300 -0.486300
vt 0.029300 -0.025400
vt 0.062500 -0.230500
vt -0.019500 -0.029300
vt 0.033200 -0.345700
vt -0.082000 -0.111300
vt 0.051800 -0.468800
vt 0.091800 -0.244100
vt 0.054700 -0.191400
vt -0.037100 -0.337900
vt -0.066400 -0.002000
vt 0.030300 -0.486300
vt -0.015600 -0.322300
vt 0.029300 -0.025400
vt -0.078100 -0.849600
vt -0.043000 -1.000000
vt -0.043000 -0.935500
vt 0.042000 -0.544900
vt 0.041000 -0.408200
vt -0.047900 -0.488300
s 1
usemtl lambert60
f 1/1/1 2/2/1 3/3/2
f 2/2/1 4/4/2 3/3/2
f 3/3/2 4/4/2 5/5/3
f 4/4/2 6/6/3 5/5/3
f 5/5/3 6/6/3 7/7/4
f 6/6/3 8/8/4 7/7/4
f 7/7/4 8/8/4 9/9/5
f 8/8/4 10/10/5 9/9/5
f 11/11/6 12/12/6 13/13/7
f 12/12/6 14/14/7 13/13/7
f 13/13/7 14/14/7 15/15/8
f 14/14/7 16/16/8 15/15/8
f 17/17/9 18/18/10 19/19/11
f 18/18/10 20/20/12 19/19/11
f 19/19/11 20/20/12 21/21/13
f 20/20/12 22/22/14 21/21/13
f 23/23/15 24/24/16 25/25/17
f 24/24/16 26/26/17 25/25/17
f 25/25/17 26/26/17 27/27/18
f 26/26/17 28/28/19 27/27/18
f 29/29/20 30/30/21 31/31/22
f 30/30/21 32/32/23 31/31/22
f 31/31/22 32/32/23 33/33/24
f 32/32/23 34/34/25 33/33/24
f 35/35/26 36/36/27 37/37/28
f 36/36/27 38/38/29 37/37/28
f 37/37/28 38/38/29 39/39/30
f 38/38/29 40/40/31 39/39/30
f 41/41/32 42/42/33 43/43/32
f 42/42/33 44/44/34 43/43/32
f 43/43/32 44/44/34 45/45/35
f 44/44/34 46/46/36 45/45/35
f 45/45/35 46/46/36 47/47/37
f 48/48/32 49/49/38 50/50/32
f 49/49/38 51/51/39 50/50/32
f 50/50/32 51/51/39 52/52/40
f 51/51/39 53/53/41 52/52/40
f 52/52/40 53/53/41 54/54/42
f 55/55/43 56/56/44 57/57/45
f 56/56/44 58/58/46 57/57/45
f 57/57/45 58/58/46 59/59/47
f 60/60/48 61/61/49 62/62/50
f 61/61/49 63/63/51 62/62/50
f 62/62/50 63/63/51 64/64/52
f 65/65/53 66/66/54 67/67/55
f 66/66/54 68/68/56 67/67/55
f 67/67/55 68/68/56 69/69/57
f 70/70/58 71/71/59 72/72/60
f 71/71/59 73/73/61 72/72/60
f 72/72/60 73/73/61 74/74/62
f 75/75/63 76/76/64 77/77/65
f 76/76/64 78/78/66 77/77/65
f 77/77/65 78/78/66 79/79/67
f 80/80/68 81/81/69 82/82/70
f 81/81/69 83/83/71 82/82/70
f 84/84/72 85/85/73 86/86/74
f 85/85/73 87/87/75 86/86/74
f 88/88/76 89/89/77 90/90/78
f 89/89/77 91/91/19 90/90/78
f 92/92/79 93/93/32 94/94/32
f 93/93/32 95/95/80 94/94/32
f 96/96/81 97/97/82 98/98/82
f 97/97/82 99/99/83 98/98/82
f 100/100/84 101/101/85 102/102/86
f 101/101/85 103/103/87 102/102/86
f 104/104/88 105/105/89 106/106/90
f 105/105/89 107/107/91 106/106/90
f 108/108/92 109/109/93 110/110/94
f 109/109/93 111/111/95 110/110/94
f 112/112/96 113/113/96 114/114/96 115/115/96
f 116/116/97 117/117/97 118/118/97 119/119/97
f 120/120/97 121/121/97 122/122/97 123/123/97
f 124/124/98 125/125/98 126/126/98
f 127/127/99 128/128/99 129/129/99
f 130/130/100 131/131/100 132/132/100
f 133/133/101 134/134/101 135/135/101
f 136/136/32 137/137/32 138/138/32
f 139/139/32 140/140/32 141/141/32
f 142/142/32 143/143/32 144/144/32
f 145/145/32 146/146/32 147/147/32
f 148/148/32 149/149/32 150/150/32
f 151/151/102 152/152/102 153/153/102
f 154/154/103 155/155/103 156/156/103
